<svg xmlns="http://www.w3.org/2000/svg" id="instagram_2_" width="20.083" height="20.083" viewBox="0 0 20.083 20.083">
    <defs>
        <style>
            .cls-1{fill:#76d3a9}
        </style>
    </defs>
    <path id="Path_1" d="M210.844 208.922a1.922 1.922 0 1 1-1.922-1.922 1.922 1.922 0 0 1 1.922 1.922zm0 0" class="cls-1" transform="translate(-198.88 -198.88)"/>
    <path id="Path_2" d="M144.707 136.815a1.91 1.91 0 0 0-1.094-1.094 3.19 3.19 0 0 0-1.071-.2c-.608-.028-.79-.034-2.33-.034s-1.722.006-2.33.034a3.192 3.192 0 0 0-1.071.2 1.91 1.91 0 0 0-1.094 1.094 3.192 3.192 0 0 0-.2 1.071c-.028.608-.034.79-.034 2.33s.006 1.722.034 2.33a3.191 3.191 0 0 0 .2 1.071 1.909 1.909 0 0 0 1.094 1.094 3.187 3.187 0 0 0 1.071.2c.608.028.79.034 2.33.034s1.722-.006 2.33-.034a3.187 3.187 0 0 0 1.071-.2 1.909 1.909 0 0 0 1.094-1.094 3.193 3.193 0 0 0 .2-1.071c.028-.608.034-.79.034-2.33s-.006-1.722-.034-2.33a3.186 3.186 0 0 0-.2-1.071zm-4.495 6.362a2.961 2.961 0 1 1 2.961-2.961 2.961 2.961 0 0 1-2.961 2.961zm3.078-5.347a.692.692 0 1 1 .692-.692.692.692 0 0 1-.692.692zm0 0" class="cls-1" transform="translate(-130.17 -130.174)"/>
    <path id="Path_3" d="M10.042 0a10.042 10.042 0 1 0 10.041 10.042A10.043 10.043 0 0 0 10.042 0zm5.731 12.419a4.231 4.231 0 0 1-.268 1.4 2.948 2.948 0 0 1-1.686 1.686 4.233 4.233 0 0 1-1.4.268c-.615.028-.811.035-2.377.035s-1.762-.007-2.377-.035a4.233 4.233 0 0 1-1.4-.268 2.948 2.948 0 0 1-1.686-1.686 4.229 4.229 0 0 1-.268-1.4c-.028-.615-.035-.811-.035-2.377s.007-1.762.035-2.377a4.231 4.231 0 0 1 .268-1.4 2.95 2.95 0 0 1 1.686-1.687 4.234 4.234 0 0 1 1.4-.268c.615-.028.811-.035 2.377-.035s1.762.007 2.377.035a4.235 4.235 0 0 1 1.4.268 2.949 2.949 0 0 1 1.686 1.687 4.23 4.23 0 0 1 .268 1.4c.028.615.035.811.035 2.377s-.008 1.758-.035 2.377zm0 0" class="cls-1"/>
</svg>
