<svg xmlns="http://www.w3.org/2000/svg" width="30.587" height="30.587" viewBox="0 0 30.587 30.587">
    <g transform="translate(0 .001)">
        <circle cx="15.293" cy="15.293" r="15.293" fill="#007ab9" transform="translate(0 -.001)"/>
        <g>
            <path fill="#f1f2f2" d="M44.12 33.958v6.305h-3.656v-5.882c0-1.477-.528-2.486-1.851-2.486a2 2 0 0 0-1.875 1.337 2.5 2.5 0 0 0-.121.891v6.14h-3.656s.049-9.963 0-10.994h3.656v1.558c-.007.012-.018.024-.024.036h.024v-.036a3.63 3.63 0 0 1 3.295-1.816c2.405 0 4.208 1.571 4.208 4.948zm-14.983-9.989a1.905 1.905 0 1 0-.048 3.8h.024a1.906 1.906 0 1 0 .024-3.8zm-1.852 16.294h3.655V29.269h-3.655z" transform="translate(7.379 6.534) translate(-27.068 -23.969)"/>
        </g>
    </g>
</svg>
