<svg xmlns="http://www.w3.org/2000/svg" width="200.106" height="49.108" viewBox="0 0 200.106 49.108">
    <defs>
        <style>
            .cls-1{fill:#124b89}
        </style>
    </defs>
    <g id="Layer_1" transform="translate(-10.02 -350.45)">
        <g id="Group_14" transform="translate(10.02 350.45)">
            <path id="Path_4" d="M230.466 422.828h-2.074a2.958 2.958 0 0 1-1.319-.3v3.132a.633.633 0 0 1-.661.661.644.644 0 0 1-.661-.661v-8.36a2.5 2.5 0 0 1 2.642-2.642h2.074a2.515 2.515 0 0 1 2.642 2.642v2.885a2.515 2.515 0 0 1-2.642 2.642m1.323-5.53a1.21 1.21 0 0 0-1.319-1.319H228.4a1.183 1.183 0 0 0-1.319 1.319v2.885a1.183 1.183 0 0 0 1.319 1.318h2.074a1.208 1.208 0 0 0 1.319-1.319z" class="cls-1" transform="translate(-150.669 -392.313)"/>
            <path id="Path_5" d="M261.236 414.529a2.416 2.416 0 0 1-2.624 2.133h-.812a2.5 2.5 0 0 1-2.642-2.642v-4.22h-1.208a.633.633 0 0 1-.661-.661.644.644 0 0 1 .661-.661h1.208v-2.642a.633.633 0 0 1 .661-.661.644.644 0 0 1 .661.661v2.642h3.038a.633.633 0 0 1 .661.661.644.644 0 0 1-.661.661h-3.038v4.225a1.192 1.192 0 0 0 1.319 1.319h.811c.9 0 1.114-.282 1.34-1.152a.646.646 0 0 1 .623-.508.688.688 0 0 1 .661.849" class="cls-1" transform="translate(-168.624 -386.126)"/>
            <path id="Path_6" d="M320.5 422.734a.644.644 0 0 1-.661-.661v-4.925c0-1.037-.358-1.319-1.037-1.319-.661 0-1.037.3-1.037 1.319v4.925a.638.638 0 0 1-.661.679.649.649 0 0 1-.661-.679v-4.925c0-1.037-.358-1.319-1.037-1.319-.661 0-1.037.3-1.037 1.319v4.942a.633.633 0 0 1-.661.661.644.644 0 0 1-.661-.661v-7a.662.662 0 0 1 1.229-.341 2.655 2.655 0 0 1 1.131-.244 2.219 2.219 0 0 1 1.7.661 2.259 2.259 0 0 1 1.7-.661c1.622 0 2.36 1.093 2.36 2.642v4.925a.637.637 0 0 1-.661.661" class="cls-1" transform="translate(-207.585 -392.163)"/>
            <path id="Path_7" d="M448.067 415.628a.644.644 0 0 1-.661-.661v-4.925a1.192 1.192 0 0 0-1.319-1.319h-2.074a1.225 1.225 0 0 0-1.34 1.319v4.942a.633.633 0 0 1-.661.661.644.644 0 0 1-.661-.661l.017-10.793a.633.633 0 0 1 .661-.661.644.644 0 0 1 .661.661v3.509a2.712 2.712 0 0 1 1.319-.3h2.074a2.5 2.5 0 0 1 2.642 2.642v4.925a.629.629 0 0 1-.658.665" class="cls-1" transform="translate(-291.232 -385.056)"/>
            <path id="Path_8" d="M508.78 417.953a.644.644 0 0 1-.661-.661 1.183 1.183 0 0 0-1.319-1.319h-.943a1.208 1.208 0 0 0-1.319 1.319v4.208h2.1a.633.633 0 0 1 .661.661.644.644 0 0 1-.661.661h-4.622a.633.633 0 0 1-.661-.661.644.644 0 0 1 .661-.661h1.208v-5.527h-1.208a.633.633 0 0 1-.661-.661.644.644 0 0 1 .661-.661h1.678a.9.9 0 0 1 .717.4 2.847 2.847 0 0 1 1.455-.4h.943a2.506 2.506 0 0 1 2.642 2.642.641.641 0 0 1-.665.661" class="cls-1" transform="translate(-330.35 -392.306)"/>
            <path id="Path_9" d="M191.873 407.317a4.316 4.316 0 1 1-4.316 4.316 4.322 4.322 0 0 1 4.316-4.316m0-1.277a5.593 5.593 0 1 0 5.593 5.593 5.593 5.593 0 0 0-5.593-5.593z" class="cls-1" transform="translate(-124.935 -386.693)"/>
            <path id="Path_10" d="M414.7 410.616a4.637 4.637 0 0 0-4.577-4.632h-4.055a.67.67 0 0 0-.661.661v9.943a.644.644 0 0 0 .661.661.633.633 0 0 0 .661-.661v-9.278h3.4a3.319 3.319 0 0 1-.031 6.637v-.007h-.01a.642.642 0 0 0-.647.658.63.63 0 0 0 .633.654v.007h.014a4.65 4.65 0 0 0 4.618-4.643" class="cls-1" transform="translate(-267.801 -386.654)"/>
            <path id="Path_11" d="M539.175 422.844a.644.644 0 0 1-.661-.661v-4.925c0-1.037-.358-1.319-1.037-1.319-.661 0-1.037.3-1.037 1.319v4.925a.638.638 0 0 1-.661.679.649.649 0 0 1-.661-.679v-4.925c0-1.037-.359-1.319-1.037-1.319-.661 0-1.037.3-1.037 1.319v4.942a.633.633 0 0 1-.661.661.644.644 0 0 1-.661-.661v-7a.662.662 0 0 1 1.229-.341 2.654 2.654 0 0 1 1.131-.244 2.218 2.218 0 0 1 1.7.661 2.259 2.259 0 0 1 1.7-.661c1.622 0 2.36 1.093 2.36 2.642v4.925a.637.637 0 0 1-.661.661" class="cls-1" transform="translate(-350.15 -392.234)"/>
            <path id="Path_12" d="M479.232 417.3a2.5 2.5 0 0 0-2.6-2.642h-1.852a2.483 2.483 0 0 0-2.624 1.792 1.033 1.033 0 0 0-.038.209.657.657 0 0 0 .7.623.614.614 0 0 0 .606-.491c.132-.529.567-.811 1.357-.811h1.852a1.133 1.133 0 0 1 1.263 1.075.621.621 0 0 1 0 .188c-.094.358-.358.491-.738.529-.64.077-2.927.3-2.944.3a2.25 2.25 0 0 0-2.36 2.4 2.367 2.367 0 0 0 2.642 2.377h2.092c.031 0 .056-.007.087-.007a3.494 3.494 0 0 0 .432-.035c.045-.007.087-.024.132-.031a3.266 3.266 0 0 0 .362-.1c.042-.014.077-.035.118-.052a2.371 2.371 0 0 0 .313-.153c.07-.042.129-.09.191-.136.042-.031.087-.056.129-.09v-.01a2.56 2.56 0 0 0 .881-2.033v-1.309-1.6m-6.059 3.171c0-.7.226-.982 1.169-1.075.017 0 2.342-.244 2.983-.32a1.936 1.936 0 0 0 .581-.132v1.26a1.212 1.212 0 0 1-1.323 1.323H474.5c-.931.01-1.327-.387-1.327-1.048z" class="cls-1" transform="translate(-311.117 -392.313)"/>
            <path id="Path_13" d="M289.17 422.822h-6.508a.633.633 0 0 1-.661-.661.644.644 0 0 1 .661-.661h2.7v-5.527h-1.7a.633.633 0 0 1-.661-.661.644.644 0 0 1 .661-.661h2.168a.871.871 0 0 1 .849.849v6h2.492a.633.633 0 0 1 .661.661.644.644 0 0 1-.661.661" class="cls-1" transform="translate(-187.342 -392.306)"/>
            <path id="Path_14" d="M290.876 406.616a1.153 1.153 0 0 1-1.166-1.166 1.167 1.167 0 0 1 1.166-1.18 1.181 1.181 0 0 1 1.18 1.18 1.165 1.165 0 0 1-1.18 1.166" class="cls-1" transform="translate(-192.368 -385.539)"/>
            <path id="Path_15" d="M351.863 422.4a3.165 3.165 0 0 1-1.817.442h-2.074a2.369 2.369 0 0 1-2.642-2.377 2.245 2.245 0 0 1 2.36-2.394c.021 0 2.3-.226 2.944-.3.376-.038.64-.171.734-.529a.62.62 0 0 0 0-.188 1.135 1.135 0 0 0-1.263-1.075h-1.848c-.794 0-1.225.282-1.357.811a.61.61 0 0 1-.6.491.657.657 0 0 1-.7-.623.894.894 0 0 1 .038-.209 2.482 2.482 0 0 1 2.624-1.792h1.848a2.5 2.5 0 0 1 2.6 2.642v3.244a2.112 2.112 0 0 1-.849 1.862m-.477-3.463a1.933 1.933 0 0 1-.585.132c-.64.077-2.962.32-2.983.32-.943.094-1.169.376-1.169 1.075 0 .661.4 1.058 1.319 1.058h2.1a1.192 1.192 0 0 0 1.319-1.319l.001-1.274z" class="cls-1" transform="translate(-228.631 -392.306)"/>
            <path id="Path_16" d="M570.313 422.4a3.165 3.165 0 0 1-1.817.442h-2.074a2.369 2.369 0 0 1-2.642-2.377 2.245 2.245 0 0 1 2.36-2.394c.017 0 2.3-.226 2.944-.3.376-.038.64-.171.734-.529a.617.617 0 0 0 0-.188 1.135 1.135 0 0 0-1.263-1.075h-1.848c-.794 0-1.225.282-1.357.811a.61.61 0 0 1-.6.491.657.657 0 0 1-.7-.623.9.9 0 0 1 .038-.209 2.481 2.481 0 0 1 2.621-1.792h1.848a2.5 2.5 0 0 1 2.6 2.642v3.244a2.1 2.1 0 0 1-.846 1.862m-.477-3.463a1.933 1.933 0 0 1-.585.132c-.64.077-2.962.32-2.983.32-.943.094-1.169.376-1.169 1.075 0 .661.4 1.058 1.319 1.058h2.1a1.191 1.191 0 0 0 1.319-1.319l.001-1.274z" class="cls-1" transform="translate(-371.052 -392.306)"/>
            <path id="Path_17" d="M34.577 350.45A24.554 24.554 0 1 0 59.131 375a24.585 24.585 0 0 0-24.554-24.55m0 47.514A22.96 22.96 0 1 1 57.537 375a22.984 22.984 0 0 1-22.96 22.964z" class="cls-1" transform="translate(-10.02 -350.45)"/>
            <path id="Path_18" d="M69.053 387.5H58.96v24.143a.8.8 0 0 0 1.6 0V389.1h8.482a8.8 8.8 0 0 1 .588 17.482l-.136.014a.795.795 0 0 0-.063 1.587l.195-.014a10.379 10.379 0 0 0-.571-20.666" class="cls-1" transform="translate(-41.927 -374.605)"/>
        </g>
    </g>
</svg>
