<svg xmlns="http://www.w3.org/2000/svg" width="20.052" height="20.052" viewBox="0 0 20.052 20.052">
    <path fill="#76d3a9" d="M10.026 0a10.026 10.026 0 1 0 10.026 10.026A10.027 10.027 0 0 0 10.026 0zM14.6 7.817q.007.148.007.3a6.5 6.5 0 0 1-6.547 6.547 6.514 6.514 0 0 1-3.527-1.034 4.68 4.68 0 0 0 .549.032 4.617 4.617 0 0 0 2.858-.985 2.3 2.3 0 0 1-2.15-1.6 2.294 2.294 0 0 0 1.039-.039 2.3 2.3 0 0 1-1.843-2.257v-.029a2.285 2.285 0 0 0 1.042.288 2.3 2.3 0 0 1-.712-3.072 6.533 6.533 0 0 0 4.743 2.4 2.3 2.3 0 0 1 3.921-2.1 4.616 4.616 0 0 0 1.461-.559 2.31 2.31 0 0 1-1.011 1.279 4.59 4.59 0 0 0 1.321-.362A4.676 4.676 0 0 1 14.6 7.817zm0 0"/>
</svg>
