<svg xmlns="http://www.w3.org/2000/svg" id="youtube" width="20.037" height="20.037" viewBox="0 0 20.037 20.037">
    <defs>
        <style>
            .cls-1{fill:#76d3a9}
        </style>
    </defs>
    <path id="Path_4" d="M224.113 211.793l3.259-1.877-3.259-1.877zm0 0" class="cls-1" transform="translate(-215.342 -199.898)"/>
    <path id="Path_5" d="M10.018 0a10.018 10.018 0 1 0 10.019 10.018A10.02 10.02 0 0 0 10.018 0zm6.26 10.029a16.535 16.535 0 0 1-.258 3.012 1.569 1.569 0 0 1-1.1 1.1 38.078 38.078 0 0 1-4.9.258 36.715 36.715 0 0 1-4.9-.268 1.569 1.569 0 0 1-1.1-1.1 16.463 16.463 0 0 1-.258-3.011 16.524 16.524 0 0 1 .258-3.011 1.6 1.6 0 0 1 1.1-1.114 38.078 38.078 0 0 1 4.9-.258 36.638 36.638 0 0 1 4.9.268 1.569 1.569 0 0 1 1.1 1.1 15.691 15.691 0 0 1 .258 3.024zm0 0" class="cls-1"/>
</svg>
